PathFileType	4	(X/Y/Z)	C:\ABL_Data\ExoAging\Piloting\Dec 6 2019\Generated_files\static_2.trc
DataRate	CameraRate	NumFrames	NumMarkers	Units	OrigDataRate	OrigDataStartFrame	OrigNumFrames
100.00	100.00	       15	20	mm	100.00	356	       568
Frame#	Time	R.Acromium			L.Acromium			Sternum			R.ASIS			R.PSIS			S2			L.PSIS			L.ASIS			R.Knee			R.Ankle			L.Knee			L.Ankle			R.MKnee			R.MAnkle			L.MKnee			L.MAnkle			C7			T12			Clav			R.Back			
		X1	Y1	Z1	X2	Y2	Z2	X3	Y3	Z3	X4	Y4	Z4	X5	Y5	Z5	X6	Y6	Z6	X7	Y7	Z7	X8	Y8	Z8	X9	Y9	Z9	X10	Y10	Z10	X11	Y11	Z11	X12	Y12	Z12	X13	Y13	Z13	X14	Y14	Z14	X15	Y15	Z15	X16	Y16	Z16	X17	Y17	Z17	X18	Y18	Z18	X19	Y19	Z19	X20	Y20	Z20	

356	3.550	840.90326	383.82797	1495.39746	849.02802	789.93701	1486.06958				915.03485	450.30093	1004.96545	731.29291	528.11926	1046.68677	712.96674	581.91925	1022.39771	735.27142	631.54266	1050.35449	920.89838	709.00024	1017.96075	819.45544	383.66507	512.44208	759.27051	378.57547	86.74133	819.85229	765.61542	509.61041	766.90253	775.46588	78.88378	841.41193	496.00232	489.12708	803.92285	458.63937	91.98054	830.60138	652.37195	487.15189	783.89258	685.45807	93.63862	758.36017	572.84924	1555.20032	735.89911	582.42432	1187.26587	920.04224	578.59186	1460.63757	694.84717	457.50055	1394.10132	
357	3.560	840.96619	383.77563	1495.37109	849.02087	789.96057	1486.08386				914.97009	450.17474	1004.91907	731.32672	528.07410	1046.67358	712.96844	581.96509	1022.40375	735.09442	631.45728	1050.48108	920.86243	709.06610	1017.98260	819.43738	383.66989	512.46088	759.27679	378.58728	86.75482	819.85114	765.65521	509.59924	766.84308	775.50861	78.92873	841.42188	496.02054	489.10452	803.94720	458.59586	91.98500	830.58160	652.33661	487.14780	783.85999	685.45483	93.69167	758.37225	572.85681	1555.17578	735.85498	582.39215	1187.26343	920.00958	578.58301	1460.62402	694.81476	457.48523	1394.10815	
358	3.570	840.91290	383.78119	1495.30298	849.02368	789.94977	1486.07727				914.95972	450.20151	1004.89905	731.30774	528.14313	1046.65784	712.95569	581.97272	1022.38422	735.26392	631.57159	1050.32544	920.86182	709.12347	1017.96814	819.44818	383.62491	512.50580	759.28577	378.57178	86.73055	819.87390	765.64142	509.57831	766.81854	775.49420	78.93922	841.42700	496.02820	489.10233	803.93640	458.61993	91.98208	830.54175	652.39087	487.13696	783.83600	685.43585	93.65279	758.37433	572.85419	1555.15747	735.90851	582.46259	1187.24121	920.01440	578.62524	1460.61426	694.82635	457.54218	1394.07910	
359	3.580	840.89911	383.86023	1495.31274	849.02386	789.99475	1486.08472				914.95056	450.21732	1004.88000	731.26575	528.19635	1046.64075	712.98303	582.00439	1022.35651	735.26227	631.59094	1050.31653	920.87201	709.09723	1017.97510	819.43829	383.70883	512.46466	759.29218	378.58014	86.68505	819.84973	765.71783	509.59955	766.83148	775.50769	78.90594	841.49677	496.01859	489.06500	803.94183	458.64792	91.94625	830.51971	652.45709	487.10098	783.86761	685.42993	93.65546	758.35846	572.89587	1555.13757	735.87994	582.47058	1187.23792	920.11493	577.55219	1460.57813	694.81860	457.53482	1394.06104	
360	3.590	840.90662	383.83868	1495.23499	849.02588	789.99866	1486.08911				915.00775	450.24701	1004.89990	731.27301	528.22144	1046.66516	712.99292	581.99695	1022.36676	735.25830	631.60962	1050.33240	920.93762	709.11224	1018.00751	819.45825	383.71259	512.48602	759.28900	378.59680	86.70422	819.86835	765.72626	509.60803	766.86682	775.49542	78.94452	841.50452	496.04071	489.05722	803.93713	458.66061	91.98599	830.55847	652.47339	487.09198	783.94110	685.43030	93.62875	758.37103	572.83569	1555.15369	735.88367	582.49829	1187.23669	919.98840	578.62286	1460.62134	694.82367	457.53592	1394.05627	
361	3.600	840.88312	383.73303	1495.17273	849.05719	789.96161	1486.03491				914.99542	450.27682	1004.87488	731.27020	528.24438	1046.65894	712.96643	582.05566	1022.37134	735.27960	631.62579	1050.32520	920.91168	709.12549	1017.96997	819.46558	383.70789	512.49377	759.31250	378.60165	86.70061	819.85266	765.79022	509.59085	766.87372	775.50513	78.91302	841.50989	496.08768	489.04987	803.92822	458.61292	92.02642	830.61145	652.45892	487.10403	783.94165	685.45563	93.65459	758.36682	572.84344	1555.14795	735.89600	582.52441	1187.25000	920.06860	577.66858	1460.53577	694.80914	457.58865	1394.03088	
362	3.610	840.85669	383.78012	1495.20947	849.05676	789.99115	1486.02014				914.96716	450.30655	1004.83112	731.26892	528.28345	1046.63062	712.96606	582.06628	1022.36804	735.26129	631.64923	1050.29895	920.89008	709.17432	1017.93732	819.49457	383.68762	512.49573	759.29114	378.59796	86.72388	819.86584	765.76654	509.54684	766.89441	775.44104	78.88554	841.49506	496.09821	489.02963	803.95892	458.64059	91.94909	830.57013	652.50983	487.13928	783.90948	685.46912	93.67222	758.35443	573.02448	1555.13257	735.87476	582.56781	1187.25623	920.04895	577.63013	1460.48523	694.76050	457.63010	1394.03809	
363	3.620	840.95599	383.96304	1495.17847	849.03186	790.05493	1486.06030				914.98401	450.31720	1004.87848	731.25854	528.30927	1046.62781	712.96301	582.11780	1022.36401	735.26770	631.67517	1050.29626	920.86298	709.22119	1017.95209	819.47522	383.72867	512.50525	759.31451	378.63049	86.72417	819.82440	765.86627	509.55328	766.84912	775.51270	78.90982	841.46545	496.13818	489.04028	803.89899	458.63583	92.00458	830.55804	652.51941	487.16205	783.87769	685.46832	93.66607	758.37939	572.95911	1555.14355	735.86188	582.59473	1187.24731	919.93311	578.64038	1460.50745	694.76044	457.62195	1394.04285	
364	3.630	840.84436	383.82971	1495.09119	849.06421	789.99249	1486.03296				914.94537	450.33139	1004.87494	731.25635	528.29846	1046.63879	712.95782	582.11792	1022.34576	735.26544	631.66772	1050.29077	920.85632	709.22443	1017.97321	819.44409	383.75491	512.49976	759.28223	378.58853	86.73875	819.77930	765.83960	509.61481	766.85400	775.49335	78.91286	841.42029	496.16556	489.05496	803.89172	458.66806	91.99127	830.57074	652.49158	487.16309	783.83966	685.45758	93.66201	758.37720	572.86646	1555.13049	735.86041	582.57648	1187.22473	920.01184	577.66296	1460.46997	694.76465	457.67331	1394.00586	
365	3.640	840.83252	383.76883	1495.08752	849.09662	790.04333	1486.05493				914.92163	450.34637	1004.85870	731.25781	528.28741	1046.62256	712.95703	582.11743	1022.35199	735.25018	631.68311	1050.29712	920.85065	709.25293	1017.96460	819.43396	383.76813	512.46454	759.28015	378.60156	86.70402	819.81726	765.86133	509.56842	766.84167	775.49377	78.86120	841.45850	496.13699	489.03598	803.91858	458.67856	91.98694	830.53497	652.48761	487.16360	783.85736	685.43640	93.66380	758.36908	572.90723	1555.11194	735.86169	582.62219	1187.22021	920.00531	577.62408	1460.45959	694.73669	457.68524	1393.99036	
366	3.650	840.88568	383.87473	1495.13855	849.09369	790.04358	1486.05945				914.91827	450.36035	1004.83954	731.21545	528.34344	1046.62390	712.94537	582.10114	1022.34338	735.08331	631.60223	1050.43567	920.94458	709.22449	1018.09302	819.44781	383.74832	512.49768	759.27704	378.60605	86.70758	819.83490	765.80493	509.60657	766.82855	775.49451	78.92646	841.47467	496.14575	489.08102	803.94568	458.65152	91.96156	830.53870	652.51581	487.09225	783.86096	685.43939	93.64668	758.34924	573.00787	1555.15039	735.86566	582.64746	1187.22498	919.99756	577.66241	1460.45129	694.70746	457.69189	1393.98816	
367	3.660	840.80200	383.86725	1495.04224	849.09808	790.07617	1486.03882				914.94971	450.40805	1004.83368	731.20770	528.37982	1046.63916	712.95715	582.13995	1022.34711	735.25653	631.71887	1050.31567	920.87714	709.28119	1017.96027	819.42969	383.79700	512.48474	759.28833	378.60077	86.68850	819.81451	765.83594	509.58310	766.92059	775.49042	78.89735	841.44617	496.16794	489.07059	803.94739	458.64978	91.98473	830.51831	652.55640	487.10947	783.87024	685.44189	93.63162	758.37921	572.92035	1555.13953	735.82031	582.69745	1187.23425	919.97784	577.64374	1460.41064	694.70087	457.71991	1394.00000	
368	3.670	840.79272	383.81909	1495.00745	849.08740	790.05872	1486.02612				914.94873	450.42670	1004.83807	731.18909	528.45190	1046.64355	712.93170	582.20911	1022.36505	735.24139	631.73413	1050.29895	920.86255	709.29504	1017.92474	819.41919	383.79376	512.49158	759.28680	378.60504	86.73186	819.82727	765.83997	509.57040	766.87286	775.48676	78.90749	841.44427	496.16730	489.06458	803.99933	458.63806	91.93342	830.53546	652.51575	487.12723	783.90527	685.43976	93.61378	758.38776	572.95532	1555.11877	735.80286	582.72491	1187.21948	919.95941	577.69354	1460.37256	694.66870	457.73669	1393.99231	
369	3.680	840.69122	383.93805	1494.96033	849.07092	790.06293	1486.02661				914.91443	450.43665	1004.88037	731.21130	528.45679	1046.66333	712.91193	582.23090	1022.37457	735.24066	631.77252	1050.31396	920.86420	709.28986	1017.96173	819.41425	383.78687	512.50610	759.28357	378.61444	86.75453	819.76666	765.91742	509.58472	766.86737	775.50562	78.91238	841.37531	496.23511	489.07108	803.95984	458.63345	91.96623	830.55450	652.54102	487.14441	783.89185	685.47400	93.67197	758.38745	573.00812	1555.11560	735.80988	582.74634	1187.22095	919.93958	577.72961	1460.35669	694.64941	457.75729	1393.99438	
370	3.690	840.73779	383.81766	1494.98535	849.07721	790.08539	1485.97375				914.89734	450.43387	1004.87030	731.19330	528.51105	1046.65295	712.91614	582.24146	1022.37787	735.24933	631.77936	1050.31750	920.85382	709.32318	1017.93317	819.41125	383.76208	512.51147	759.29352	378.60287	86.73813	819.76044	765.94666	509.60040	766.85535	775.47955	78.88268	841.39539	496.17935	489.04584	803.92719	458.64413	91.99510	830.53381	652.57050	487.13940	783.86621	685.47211	93.65035	758.40485	572.94055	1555.14099	735.78113	582.78186	1187.26587	919.95105	577.69928	1460.32617	694.64423	457.79446	1393.98999	
